<svg xmlns="http://www.w3.org/2000/svg" viewBox="0 0 24 24" fill="none">
  <path d="M10.49 2.19a1.5 1.5 0 0 1 3.02 0l.18 1.5a8.74 8.74 0 0 1 2.02.84l1.18-.94a1.5 1.5 0 0 1 2.13.15l1.07 1.28a1.5 1.5 0 0 1-.15 2.13l-1.18.94c.39.61.69 1.27.88 1.96l1.5.18a1.5 1.5 0 0 1 0 3.02l-1.5.18a8.76 8.76 0 0 1-.84 2.02l.94 1.18a1.5 1.5 0 0 1-.15 2.13l-1.28 1.07a1.5 1.5 0 0 1-2.13-.15l-.94-1.18a8.74 8.74 0 0 1-1.96.88l-.18 1.5a1.5 1.5 0 0 1-3.02 0l-.18-1.5a8.74 8.74 0 0 1-2.02-.84l-1.18.94a1.5 1.5 0 0 1-2.13-.15L3.91 18.9a1.5 1.5 0 0 1 .15-2.13l1.18-.94a8.74 8.74 0 0 1-.88-1.96l-1.5-.18a1.5 1.5 0 0 1 0-3.02l1.5-.18a8.76 8.76 0 0 1 .84-2.02l-.94-1.18a1.5 1.5 0 0 1 .15-2.13L5.69 3.9a1.5 1.5 0 0 1 2.13.15l.94 1.18c.61-.39 1.27-.69 1.96-.88l.18-1.5Z" fill="currentColor"/>
  <circle cx="12" cy="12" r="3.25" fill="white"/>
</svg>
