<svg xmlns="http://www.w3.org/2000/svg" viewBox="0 0 98 96" aria-hidden="true">
  <path fill="#111111" d="M49 0C21.9 0 0 22.4 0 50c0 22 14.3 40.7 34.1 47.3 2.5.5 3.4-1.1 3.4-2.4 0-1.2-.1-5.2-.1-9.4-13.9 3.1-16.8-6-16.8-6-2.3-5.9-5.6-7.5-5.6-7.5-4.6-3.2.3-3.1.3-3.1 5.1.4 7.8 5.3 7.8 5.3 4.5 7.9 11.9 5.6 14.8 4.3.5-3.3 1.8-5.6 3.2-6.9-11.1-1.3-22.7-5.7-22.7-25.1 0-5.5 1.9-10 5.1-13.6-.5-1.3-2.2-6.5.5-13.5 0 0 4.2-1.4 13.8 5.2 4-1.1 8.3-1.7 12.6-1.7s8.6.6 12.6 1.7c9.6-6.6 13.8-5.2 13.8-5.2 2.7 7 1 12.2.5 13.5 3.2 3.6 5.1 8.1 5.1 13.6 0 19.5-11.6 23.8-22.8 25.1 1.8 1.6 3.4 4.6 3.4 9.4 0 6.8-.1 12.2-.1 13.8 0 1.3.9 2.9 3.4 2.4C83.7 90.7 98 72 98 50 98 22.4 76.1 0 49 0Z"/>
</svg>
